<svg width="632" height="178" viewBox="0 0 632 178" fill="none" xmlns="http://www.w3.org/2000/svg">
<path d="M84.6371 89.9011L97.5363 100.242C94.8207 103.765 91.5268 106.658 87.6545 108.923C83.8325 111.137 79.7087 112.571 75.2833 113.225C70.8578 113.779 66.5329 113.477 62.3086 112.32C57.7826 111.212 53.7845 109.225 50.3146 106.356C39.7538 97.0971 30.6766 86.7056 23.0828 75.1819H16.5201V113.527H0V3.92582H54.9161C61.3531 3.92582 67.3124 5.51097 72.794 8.68126C78.2755 11.8515 82.6004 16.1792 85.7686 21.6644C88.9369 27.1495 90.521 33.1126 90.521 39.5538C90.521 45.9951 88.9369 51.9582 85.7686 57.4433C82.6004 62.9284 78.2755 67.2561 72.794 70.4264C67.3124 73.5967 61.3531 75.1819 54.9161 75.1819H43.4501C48.5796 81.8244 54.2874 87.9133 60.5736 93.4488C62.2332 94.9081 64.1693 95.8642 66.382 96.3171C68.7959 96.9713 71.0841 97.1474 73.2466 96.8455C77.8732 96.141 81.67 93.8262 84.6371 89.9011ZM16.5201 58.6511H54.9161C60.1964 58.6511 64.6973 56.7891 68.4188 53.0653C72.1402 49.3415 74.0009 44.8377 74.0009 39.5538C74.0009 34.27 72.1402 29.7662 68.4188 26.0424C64.6973 22.2682 60.1964 20.3811 54.9161 20.3811H16.5201V58.6511Z" fill="#CAFC01"/>
<path d="M121.977 113.527H105.457V27.7785H121.977V113.527ZM121.977 21.8908H105.457V3.92582H121.977V21.8908Z" fill="#CAFC01"/>
<path d="M185.493 9.13416C195.098 13.6128 202.742 20.3308 208.425 29.2881C214.158 38.2455 217.024 48.0331 217.024 58.6511C217.024 69.269 214.158 79.0818 208.425 88.0895C202.742 97.0468 195.098 103.765 185.493 108.243C180.816 110.508 175.912 112.018 170.783 112.772C168.721 113.125 166.156 113.351 163.089 113.452L130.048 113.527V3.92582H163.089C166.156 4.02647 168.721 4.25292 170.783 4.60517C175.912 5.36 180.816 6.86967 185.493 9.13416ZM178.477 93.2978V93.2223C185.166 90.1023 190.496 85.4224 194.469 79.1825C198.492 72.8922 200.504 66.0484 200.504 58.6511C200.504 51.2537 198.492 44.4351 194.469 38.1951C190.496 31.9049 185.166 27.1998 178.477 24.0798C175.259 22.5198 171.839 21.4631 168.218 20.9095C166.106 20.5573 164.296 20.3811 162.787 20.3811H146.569V96.921H162.787C164.597 96.921 166.408 96.77 168.218 96.4681C171.839 95.9146 175.259 94.8578 178.477 93.2978Z" fill="#CAFC01"/>
<path d="M309.582 21.8153C318.081 32.6346 322.33 44.9383 322.33 58.7265C322.33 72.4645 318.081 84.743 309.582 95.5623C305.307 101.198 300.027 105.602 293.741 108.772C287.454 111.892 280.791 113.452 273.751 113.452C266.71 113.452 260.021 111.892 253.685 108.772C247.399 105.602 242.118 101.198 237.844 95.5623C229.345 84.743 225.095 72.4645 225.095 58.7265C225.095 44.9383 229.345 32.6346 237.844 21.8153C242.118 16.1792 247.399 11.8012 253.685 8.68126C260.021 5.51097 266.71 3.92582 273.751 3.92582C280.791 3.92582 287.454 5.51097 293.741 8.68126C300.027 11.8012 305.307 16.1792 309.582 21.8153ZM296.833 85.2211C302.868 77.4212 305.885 68.5897 305.885 58.7265C305.885 48.8131 302.868 39.9564 296.833 32.1565C294.168 28.483 290.773 25.6146 286.65 23.5514C282.576 21.4379 278.251 20.3811 273.675 20.3811C269.099 20.3811 264.774 21.4379 260.7 23.5514C256.627 25.6146 253.258 28.483 250.592 32.1565C244.557 39.9564 241.54 48.8131 241.54 58.7265C241.54 68.5897 244.557 77.4212 250.592 85.2211C253.258 88.8946 256.627 91.7881 260.7 93.9017C264.774 95.9649 269.099 96.9965 273.675 96.9965C278.251 96.9965 282.576 95.9649 286.65 93.9017C290.773 91.7881 294.168 88.8946 296.833 85.2211Z" fill="#CAFC01"/>
<path d="M330.402 3.85034H416.396V20.3811H381.697V113.527H365.177V20.3811H330.402V3.85034Z" fill="#CAFC01"/>
<path d="M424.543 3.85034H510.538V20.3811H475.839V113.527H459.319V20.3811H424.543V3.85034Z" fill="#CAFC01"/>
<path d="M612.224 19.9282C617.353 25.0611 621.301 30.9991 624.067 37.7422C626.833 44.4351 628.216 51.4047 628.216 58.6511C628.216 67.2561 626.33 75.358 622.558 82.9566C618.837 90.5553 613.607 96.9462 606.868 102.129C600.179 107.312 592.611 110.76 584.162 112.471C571.338 115.037 559.168 113.225 547.652 107.036C536.186 100.846 527.938 91.7127 522.909 79.6354C520.445 73.6974 519.062 67.5329 518.761 61.142C518.509 54.7008 519.263 48.5867 521.024 42.7996C522.784 36.9623 525.55 31.452 529.321 26.2688C533.093 21.0856 537.669 16.7076 543.05 13.1348C553.913 5.88839 565.832 2.89422 578.806 4.15227C591.831 5.41033 602.97 10.669 612.224 19.9282ZM600.531 85.7495C604.102 82.1766 606.843 78.0502 608.754 73.3703C610.715 68.64 611.695 63.7336 611.695 58.6511C611.695 49.5428 608.804 41.4661 603.021 34.421C597.237 27.3256 589.87 22.8972 580.918 21.136C571.967 19.3747 563.468 20.6327 555.422 24.9101C547.375 29.1875 541.592 35.5532 538.072 44.0073C534.552 52.4614 534.124 61.0665 536.789 69.8226C539.455 78.5283 544.584 85.4224 552.178 90.5049C559.772 95.5875 568.12 97.6758 577.222 96.77C586.324 95.8642 594.094 92.1907 600.531 85.7495Z" fill="#CAFC01"/>
<path d="M573.262 36.8147L576.113 51.8423L588.755 43.2319L580.144 55.8738L595.172 58.7246L580.144 61.5753L588.755 74.2172L576.113 65.6069L573.262 80.6344L570.411 65.6069L557.769 74.2172L566.38 61.5753L551.352 58.7246L566.38 55.8738L557.769 43.2319L570.411 51.8423L573.262 36.8147Z" fill="white"/>
<path d="M0 157.362C0 169.162 8.79782 177.934 23.3837 177.934C35.3456 177.934 40.9793 172.034 42.2913 170.948L41.6739 170.171C36.6576 174.519 30.4065 176.614 23.3837 176.614C14.4315 176.614 12.0391 168.541 11.5761 160.933H41.288C41.288 148.047 39.5902 136.713 23.3837 136.713C11.1902 136.713 0 143.933 0 157.362ZM23.3837 137.955C37.5837 137.955 39.8217 148.047 39.8217 159.691H11.4989C11.1902 151.463 12.3478 137.955 23.3837 137.955Z" fill="#E4E4E4"/>
<path d="M48.1101 176.692H59.0687C59.0687 165.358 61.2296 137.955 76.6644 137.955C81.2948 137.955 83.2242 140.75 83.2242 149.211V176.692H94.26V158.837C94.26 144.01 89.0122 136.635 76.6644 136.635C64.8568 136.635 60.6894 150.842 59.0687 160.545V137.877H48.1101V176.692Z" fill="#E4E4E4"/>
<path d="M103.673 139.042V153.403C103.673 172.888 110.31 177.934 123.121 177.934C132.536 177.934 136.935 168.852 139.173 161.011L137.938 160.7C135.005 171.258 129.912 176.614 123.043 176.614C118.49 176.614 114.709 173.897 114.709 165.436V139.042H132.69V137.8H114.709V122.429H103.673V137.8H96.9587V139.042H103.673Z" fill="#E4E4E4"/>
<path d="M136.788 157.362C136.788 169.162 145.585 177.934 160.171 177.934C172.133 177.934 177.767 172.034 179.079 170.948L178.462 170.171C173.445 174.519 167.194 176.614 160.171 176.614C151.219 176.614 148.827 168.541 148.364 160.933H178.076C178.076 148.047 176.378 136.713 160.171 136.713C147.978 136.713 136.788 143.933 136.788 157.362ZM160.171 137.955C174.371 137.955 176.609 148.047 176.609 159.691H148.287C147.978 151.463 149.135 137.955 160.171 137.955Z" fill="#E4E4E4"/>
<path d="M184.898 176.692H195.856C195.856 165.358 198.017 137.955 213.452 137.955C218.005 137.955 220.166 140.827 220.166 143.467C220.166 147.659 216.076 150.143 212.526 151.152L212.989 152.394C217.079 151.152 221.401 148.28 221.401 143.467C221.401 140.206 218.854 136.635 213.452 136.635C201.644 136.635 197.477 150.842 195.856 160.545V137.955H184.898V176.692Z" fill="#E4E4E4"/>
<path d="M230.814 139.042V153.403C230.814 172.888 237.451 177.934 250.262 177.934C259.677 177.934 264.076 168.852 266.314 161.011L265.079 160.7C262.146 171.258 257.053 176.614 250.184 176.614C245.631 176.614 241.85 173.897 241.85 165.436V139.042H259.831V137.8H241.85V122.429H230.814V137.8H224.1V139.042H230.814Z" fill="#E4E4E4"/>
<path d="M282.142 177.934C294.258 177.934 297.885 168.308 299.583 158.139L299.737 157.207V176.692H310.696V152.394C310.696 138.964 299.12 136.635 289.782 136.635C275.813 136.635 269.639 141.759 267.247 145.718L275.273 149.599C268.868 150.997 263.929 155.422 263.929 162.564C263.929 175.295 271.8 177.934 282.142 177.934ZM284.611 150.065H299.351C298.425 161.244 296.264 176.692 282.064 176.692C277.511 176.692 275.196 173.509 275.196 163.34C275.196 153.636 278.36 150.065 284.611 150.065ZM278.36 149.056C278.36 147.193 280.984 137.567 289.319 137.567C299.043 137.567 299.506 140.905 299.506 148.823H282.064C280.752 148.823 279.518 148.901 278.36 149.056Z" fill="#E4E4E4"/>
<path d="M319.371 176.692H330.329V137.877H319.371V176.692ZM324.773 130.037C328.246 130.037 331.101 127.242 331.101 123.671C331.101 120.178 328.246 117.383 324.773 117.383C321.3 117.383 318.445 120.178 318.445 123.671C318.445 127.242 321.3 130.037 324.773 130.037Z" fill="#E4E4E4"/>
<path d="M338.793 176.692H349.752C349.752 165.358 351.913 137.955 367.348 137.955C371.978 137.955 373.907 140.75 373.907 149.211V176.692H384.943V158.837C384.943 144.01 379.695 136.635 367.348 136.635C355.54 136.635 351.373 150.842 349.752 160.545V137.877H338.793V176.692Z" fill="#E4E4E4"/>
<path d="M392.679 176.692H403.638C403.638 165.358 405.799 137.955 421.234 137.955C425.864 137.955 427.793 140.75 427.793 149.211V176.692H438.829C438.829 165.281 440.836 137.955 456.425 137.955C460.978 137.955 462.908 140.75 462.908 149.211V176.692H474.021V158.837C474.021 146.261 470.393 136.635 456.348 136.635C446.855 136.635 442.611 145.718 440.296 153.559C439.524 156.276 439.292 157.906 439.215 158.139H438.829C438.829 144.786 435.048 136.635 421.234 136.635C411.818 136.635 407.342 145.718 405.181 153.559C404.564 155.887 404.41 155.81 404.024 158.139H403.638V137.955H392.679V176.692Z" fill="#E4E4E4"/>
<path d="M480.528 157.362C480.528 169.162 489.326 177.934 503.911 177.934C515.873 177.934 521.507 172.034 522.819 170.948L522.202 170.171C517.185 174.519 510.934 176.614 503.911 176.614C494.959 176.614 492.567 168.541 492.104 160.933H521.816C521.816 148.047 520.118 136.713 503.911 136.713C491.718 136.713 480.528 143.933 480.528 157.362ZM503.911 137.955C518.111 137.955 520.35 148.047 520.35 159.691H492.027C491.718 151.463 492.876 137.955 503.911 137.955Z" fill="#E4E4E4"/>
<path d="M528.638 176.692H539.597C539.597 165.358 541.757 137.955 557.192 137.955C561.823 137.955 563.752 140.75 563.752 149.211V176.692H574.788V158.837C574.788 144.01 569.54 136.635 557.192 136.635C545.385 136.635 541.217 150.842 539.597 160.545V137.877H528.638V176.692Z" fill="#E4E4E4"/>
<path d="M584.201 139.042V153.403C584.201 172.888 590.838 177.934 603.648 177.934C613.064 177.934 617.463 168.852 619.701 161.011L618.466 160.7C615.533 171.258 610.44 176.614 603.571 176.614C599.018 176.614 595.237 173.897 595.237 165.436V139.042H613.218V137.8H595.237V122.429H584.201V137.8H577.487V139.042H584.201Z" fill="#E4E4E4"/>
</svg>
